#N canvas 2 50 696 716 10;
#X obj 159 234 metro;
#X msg 203 100 60000;
#X floatatom 410 101 5 0 0 0 - - -, f 5;
#X obj 159 56 trigger b b b;
#X obj 203 147 /;
#X obj 158 6 bng 15 250 50 0 empty empty empty 17 7 0 10 -262144 -1
-1;
#X floatatom 255 164 5 0 0 0 - - -, f 5;
#X obj 203 188 int;
#X floatatom 255 205 5 0 0 0 - - -, f 5;
#X msg 97 8 stop;
#X msg 410 62 60;
#X text 446 61 Default bpm;
#X obj 410 23 loadbang;
#X text 478 18 Send bang when patch is loaded;
#X text 247 94 Millisec. in a min.;
#X text 455 100 bpm;
#X text 298 164 Float output;
#X text 299 205 Int cast;
#X obj 159 273 int, f 5;
#X floatatom 159 299 5 0 0 0 - - -, f 5;
#X obj 158 324 % 4;
#X floatatom 159 348 5 0 0 0 - - -, f 5;
#X obj 234 273 + 1;
#X msg 223 242 0;
#X text 255 242 Reset;
#X connect 0 0 18 0;
#X connect 1 0 4 0;
#X connect 2 0 4 1;
#X connect 3 0 0 0;
#X connect 3 1 1 0;
#X connect 3 2 2 0;
#X connect 4 0 6 0;
#X connect 4 0 7 0;
#X connect 5 0 3 0;
#X connect 7 0 8 0;
#X connect 7 0 0 1;
#X connect 9 0 0 0;
#X connect 10 0 2 0;
#X connect 12 0 10 0;
#X connect 18 0 19 0;
#X connect 18 0 22 0;
#X connect 19 0 20 0;
#X connect 20 0 21 0;
#X connect 22 0 18 1;
#X connect 23 0 18 1;
